<svg version="1.1" xmlns="http://www.w3.org/2000/svg" xmlns:xlink="http://www.w3.org/1999/xlink" x="0px" y="0px" width="1024px"
	 height="768px" viewBox="0 0 1024 768" enable-background="new 0 0 1024 768" xml:space="preserve">
<g id="Capa_3" display="none">
	<g display="inline">
		<g>
			<defs>
				<path id="SVGID_1_" d="M714,805c0,6.627-5.373,12-12,12H361c-6.627,0-12-5.373-12-12V107c0-6.627,5.373-12,12-12h341
					c6.627,0,12,5.373,12,12V805z"/>
			</defs>
			<clipPath id="SVGID_2_">
				<use xlink:href="#SVGID_1_"  overflow="visible"/>
			</clipPath>
		</g>
		<rect x="362" y="163" fill="#0070C9" width="334" height="589"/>
		<g opacity="0.3">
			<defs>
				<rect id="SVGID_3_" x="361" y="164" opacity="0.3" width="334" height="589"/>
			</defs>
			<clipPath id="SVGID_4_">
				<use xlink:href="#SVGID_3_"  overflow="visible"/>
			</clipPath>
		</g>
	</g>
</g>
<g id="Capa_1">
	<g>
		<path fill-rule="evenodd" clip-rule="evenodd" fill="#FFFFFF" d="M413.896,366.636c0.716-4.233,1.379-8.427,2.144-12.602
			c0.904-4.932,1.897-9.848,2.847-14.771c0.057-0.295,0.115-0.501,0.505-0.498c2.542,0.017,5.083,0.008,7.624,0.011
			c0.078,0,0.156,0.034,0.282,0.063c-0.568,2.279-1.128,4.531-1.689,6.783c-2.344,9.399-4.688,18.798-7.03,28.197
			c-0.225,0.901-1.128,1.736-2.119,1.765c-1.19,0.036-2.403,0.059-3.573-0.124c-2.591-0.404-4.053-2.184-4.642-4.559
			c-0.743-2.999-1.282-6.054-1.801-9.103c-0.726-4.269-1.352-8.555-2.021-12.834c-0.016-0.103-0.041-0.204-0.144-0.311
			c-0.242,1.459-0.44,2.927-0.736,4.375c-1.091,5.352-2.211,10.697-3.327,16.044c-0.353,1.692-0.741,3.377-1.078,5.072
			c-0.092,0.464-0.314,0.751-0.713,0.979c-1.926,1.105-5.048,0.887-6.905-0.569c-1.568-1.229-2.653-2.761-3.111-4.771
			c-2.275-9.986-4.604-19.959-6.913-29.938c-0.076-0.328-0.131-0.661-0.204-1.037c2.917,0,5.769,0,8.754,0
			c1.623,9.286,3.25,18.598,4.901,28.044c0.233-1.406,0.416-2.695,0.664-3.973c1.182-6.095,2.38-12.188,3.578-18.28
			c0.346-1.759,0.727-3.511,1.049-5.274c0.085-0.468,0.276-0.567,0.715-0.563c2.52,0.02,5.04,0.016,7.56,0.002
			c0.373-0.001,0.564,0.062,0.64,0.49c1.584,8.907,3.484,17.759,4.618,26.744C413.795,366.204,413.85,366.403,413.896,366.636z"/>
		<path fill-rule="evenodd" clip-rule="evenodd" fill="#FFFFFF" d="M464.755,375.68c0-9.266,0-18.483,0-27.749
			c2.16,0,4.411,0,6.729,0c0.131,1.221,0.263,2.441,0.413,3.834c1.93-2.91,4.473-4.465,7.867-4.486
			c3.442-0.021,5.918,1.485,7.398,4.706c0.167-0.218,0.303-0.393,0.437-0.57c2.756-3.665,6.572-4.88,10.556-3.767
			c2.68,0.749,4.265,2.715,5.235,5.229c0.795,2.062,1.025,4.226,1.033,6.412c0.021,5.338,0.007,10.676,0.006,16.014
			c0,0.105-0.016,0.21-0.028,0.366c-2.624,0-5.239,0-7.948,0c0-0.24,0-0.488,0-0.736c0-4.89,0.003-9.779-0.001-14.668
			c-0.001-1.332-0.145-2.644-0.686-3.881c-1.053-2.404-3.899-2.921-5.746-1.043c-1.124,1.143-1.435,2.586-1.453,4.119
			c-0.016,1.451-0.003,2.904-0.003,4.355c0,3.715,0,7.431,0,11.146c0,0.229,0,0.458,0,0.722c-2.663,0-5.258,0-7.947,0
			c0-0.263,0-0.509,0-0.755c0-4.954,0.03-9.908-0.022-14.861c-0.012-1.114-0.209-2.254-0.506-3.331
			c-0.361-1.311-1.225-2.255-2.655-2.471c-1.445-0.218-2.595,0.35-3.473,1.478c-0.86,1.104-1.189,2.377-1.186,3.771
			c0.015,5.125,0.006,10.25,0.006,15.374c0,0.251,0,0.502,0,0.792C470.124,375.68,467.529,375.68,464.755,375.68z"/>
		<path fill-rule="evenodd" clip-rule="evenodd" fill="#FFFFFF" d="M440.795,357.077c0.285-1.845-0.938-3.391-3.023-3.724
			c-2.94-0.469-5.674,0.228-8.274,1.583c-0.188,0.097-0.368,0.208-0.6,0.34c-0.068-0.207-0.135-0.379-0.183-0.557
			c-0.389-1.441-0.739-2.895-1.18-4.32c-0.183-0.592-0.001-0.824,0.5-1.067c2.475-1.199,5.092-1.834,7.823-2.003
			c1.834-0.113,3.666-0.096,5.473,0.343c3.912,0.95,6.326,3.409,7.233,7.293c0.313,1.338,0.463,2.739,0.49,4.116
			c0.067,3.457-0.009,6.916,0.039,10.374c0.018,1.314,0.221,2.626,0.332,3.94c0.034,0.401,0.103,0.815,0.04,1.205
			c-0.098,0.602-0.467,0.943-1.126,1.027c-1.509,0.191-2.64-0.512-3.673-1.463c-0.438-0.403-0.813-0.874-1.229-1.304
			c-0.689-0.712-1.206-0.709-1.902,0.005c-0.164,0.168-0.308,0.354-0.464,0.53c-3.247,3.65-9.682,3.954-13.044,0.616
			c-3.829-3.801-3.269-10.624,1.147-13.895c2.135-1.581,4.595-2.322,7.183-2.664C437.81,357.261,439.282,357.2,440.795,357.077z
			 M441.012,362.573c-1.958,0.01-3.974,0.064-5.719,1.208c-0.605,0.396-1.15,1.051-1.451,1.711c-0.856,1.878,0.02,4.018,1.747,4.561
			c2.264,0.712,5.052-0.87,5.388-3.217C441.172,365.466,441.012,364.045,441.012,362.573z"/>
		<path fill-rule="evenodd" clip-rule="evenodd" fill="#FFFFFF" d="M522.705,357.086c0.144-1.567-0.57-2.826-1.98-3.401
			c-1.844-0.751-3.748-0.609-5.602-0.126c-1.491,0.389-2.923,1.009-4.43,1.543c-0.433-1.608-0.917-3.352-1.349-5.108
			c-0.036-0.147,0.231-0.458,0.427-0.561c2.481-1.293,5.146-1.986,7.922-2.079c1.779-0.06,3.609-0.035,5.344,0.313
			c4.248,0.853,6.686,3.632,7.531,7.819c0.231,1.143,0.347,2.326,0.362,3.493c0.046,3.522-0.013,7.045,0.032,10.567
			c0.017,1.272,0.215,2.543,0.329,3.814c0.03,0.339,0.105,0.681,0.085,1.016c-0.05,0.795-0.463,1.159-1.26,1.249
			c-0.963,0.109-1.848-0.108-2.592-0.697c-0.699-0.552-1.355-1.169-1.968-1.817c-0.978-1.035-1.477-1.059-2.382,0.016
			c-1.393,1.653-3.171,2.63-5.283,3.011c-7.585,1.364-12.01-4.951-10.07-11.49c0.872-2.939,2.964-4.767,5.697-5.939
			c2.551-1.095,5.248-1.461,7.997-1.535c0.341-0.009,0.683-0.018,1.024-0.031C522.58,357.143,522.619,357.117,522.705,357.086z
			 M522.92,362.573c-1.907-0.001-3.788,0.113-5.519,1.033c-0.968,0.515-1.618,1.302-1.877,2.387
			c-0.518,2.176,0.597,3.947,2.649,4.209c2.166,0.277,4.482-1.406,4.72-3.573C523.035,365.327,522.92,363.996,522.92,362.573z"/>
		<path fill-rule="evenodd" clip-rule="evenodd" fill="#FFFFFF" d="M553.67,338.622c2.699,0,5.318,0,8.002,0
			c0,3.093,0,6.178,0,9.326c2.229,0,4.396,0,6.613,0c0,2.033,0,4.003,0,6.04c-2.181,0-4.347,0-6.557,0
			c-0.014,0.27-0.031,0.476-0.031,0.683c-0.002,3.565-0.018,7.13,0.011,10.695c0.006,0.76,0.087,1.541,0.278,2.275
			c0.344,1.318,1.203,1.944,2.565,1.983c0.889,0.025,1.778,0.004,2.76,0.004c0,0.446-0.004,1.013,0.001,1.582
			c0.01,1.302,0.04,2.604,0.02,3.905c-0.004,0.21-0.194,0.561-0.361,0.604c-2.721,0.707-5.465,1.001-8.197,0.092
			c-2.998-0.998-4.412-3.278-4.845-6.263c-0.159-1.094-0.246-2.208-0.249-3.313c-0.019-8.923-0.01-17.847-0.01-26.77
			C553.67,339.21,553.67,338.957,553.67,338.622z"/>
		<path fill-rule="evenodd" clip-rule="evenodd" fill="#FFFFFF" d="M460.896,375.72c-2.678,0-5.338,0-8.049,0
			c0-12.625,0-25.249,0-37.925c2.66,0,5.333,0,8.049,0C460.896,350.433,460.896,363.058,460.896,375.72z"/>
		<path fill-rule="evenodd" clip-rule="evenodd" fill="#FFFFFF" d="M542.807,375.688c-2.742,0-5.401,0-8.208,0
			c0-9.261,0-18.491,0-27.764c2.212,0,4.526,0,6.882,0c0.093,1.687,0.184,3.34,0.275,4.994c0.047,0.018,0.094,0.036,0.143,0.053
			c0.085-0.187,0.176-0.372,0.256-0.562c1.086-2.569,2.845-4.409,5.65-4.997c0.82-0.172,1.698-0.089,2.549-0.073
			c0.135,0.002,0.378,0.27,0.379,0.417c0.025,2.218,0.018,4.437,0.018,6.699c-0.793,0.043-1.559,0.041-2.311,0.133
			c-2.998,0.367-5.23,2.657-5.537,5.662c-0.063,0.614-0.092,1.235-0.093,1.853c-0.008,4.27-0.003,8.54-0.003,12.81
			C542.807,375.146,542.807,375.378,542.807,375.688z"/>
		<path fill-rule="evenodd" clip-rule="evenodd" fill="#FAAF3C" d="M618.957,355.248c-0.397-0.25-0.931-0.438-1.236-0.811
			c-0.534-0.65-1.003-1.38-1.363-2.14c-0.549-1.153-0.281-1.976,0.789-2.761c1.238-0.908,2.496-1.79,3.746-2.681
			c3.335-2.376,6.671-4.752,10.005-7.129c1.059-0.755,2.212-0.582,2.925,0.531c0.873,1.364,1.688,2.767,2.502,4.168
			c0.6,1.032,0.338,2.313-0.934,2.928c-5.049,2.441-10.06,4.962-15.09,7.44C619.927,354.977,619.505,355.065,618.957,355.248z"/>
		<path fill-rule="evenodd" clip-rule="evenodd" fill="#FAAF3C" d="M618.762,360.518c0.568,0.199,1.049,0.313,1.48,0.527
			c4.994,2.47,9.982,4.953,14.969,7.438c1.111,0.555,1.516,1.625,0.91,2.729c-0.82,1.496-1.705,2.96-2.641,4.387
			c-0.688,1.048-1.824,1.179-2.84,0.452c-4.533-3.241-9.066-6.481-13.598-9.724c-1.286-0.919-1.529-1.69-0.836-3.112
			c0.352-0.72,0.818-1.404,1.342-2.009C617.839,360.874,618.357,360.738,618.762,360.518z"/>
		<path fill-rule="evenodd" clip-rule="evenodd" fill="#FAAF3C" d="M579.318,345.518c0.141-0.396,0.227-0.825,0.433-1.184
			c0.765-1.333,1.546-2.657,2.366-3.956c0.793-1.257,1.891-1.448,3.1-0.586c4.554,3.248,9.105,6.497,13.655,9.75
			c1.071,0.766,1.345,1.563,0.778,2.762c-0.388,0.817-0.914,1.586-1.475,2.299c-0.525,0.667-1.475,0.692-2.48,0.195
			c-2.717-1.344-5.43-2.694-8.146-4.039c-2.332-1.155-4.664-2.313-7.004-3.456C579.801,346.938,579.378,346.395,579.318,345.518z"/>
		<path fill-rule="evenodd" clip-rule="evenodd" fill="#FAAF3C" d="M607.99,388.945c-0.768,0-1.537,0.014-2.305-0.004
			c-1.372-0.03-2.166-0.838-2.065-2.184c0.313-4.165,0.662-8.328,0.993-12.492c0.111-1.402,0.186-2.808,0.33-4.207
			c0.051-0.496,0.16-1.047,0.434-1.439c0.25-0.359,0.736-0.705,1.158-0.763c0.896-0.125,1.824-0.131,2.727-0.049
			c1.115,0.101,1.705,0.771,1.803,1.875c0.171,1.931,0.328,3.864,0.484,5.797c0.297,3.674,0.583,7.35,0.891,11.024
			c0.129,1.547-0.643,2.424-2.21,2.439C609.482,388.951,608.736,388.945,607.99,388.945z"/>
		<path fill-rule="evenodd" clip-rule="evenodd" fill="#FAAF3C" d="M579.578,370.259c0.066-0.784,0.377-1.351,1.059-1.69
			c5.141-2.555,10.279-5.114,15.427-7.655c1.118-0.553,1.962-0.378,2.697,0.628c0.522,0.715,0.948,1.514,1.319,2.321
			c0.355,0.77,0.012,1.623-0.859,2.271c-1.283,0.956-2.594,1.875-3.896,2.807c-3.28,2.348-6.562,4.694-9.843,7.041
			c-1.18,0.843-2.32,0.648-3.102-0.587c-0.822-1.299-1.603-2.623-2.369-3.955C579.807,371.082,579.719,370.655,579.578,370.259z"/>
		<path fill-rule="evenodd" clip-rule="evenodd" fill="#FAAF3C" d="M608.014,326.568c0.768,0,1.537-0.006,2.305,0.002
			c1.373,0.015,2.234,0.931,2.126,2.296c-0.451,5.632-0.91,11.263-1.374,16.894c-0.1,1.213-0.649,1.882-1.833,1.991
			c-0.963,0.089-1.958,0.065-2.913-0.081c-0.829-0.126-1.212-0.85-1.31-1.635c-0.149-1.205-0.233-2.418-0.331-3.629
			c-0.344-4.229-0.68-8.459-1.018-12.688c-0.025-0.319-0.041-0.639-0.053-0.959c-0.051-1.314,0.768-2.172,2.096-2.189
			C606.477,326.561,607.245,326.568,608.014,326.568z"/>
		<path fill-rule="evenodd" clip-rule="evenodd" fill="#FFFFFF" d="M426.438,387.071c0.691,0,1.369,0,2.087,0
			c0.052,0.302,0.1,0.586,0.175,1.026c0.698-0.826,1.498-1.232,2.482-1.235c1.027-0.003,1.814,0.405,2.351,1.355
			c0.668-0.804,1.46-1.327,2.518-1.354c1.324-0.037,2.25,0.574,2.698,1.823c0.093,0.26,0.198,0.534,0.2,0.804
			c0.017,1.918,0.009,3.836,0.009,5.791c-0.806,0-1.605,0-2.482,0c0-1.109,0.006-2.191-0.002-3.273c-0.006-0.618,0-1.24-0.066-1.854
			c-0.087-0.789-0.534-1.216-1.16-1.206c-0.632,0.01-1.183,0.506-1.229,1.247c-0.062,0.999-0.036,2.004-0.042,3.008
			c-0.004,0.679-0.001,1.358-0.001,2.077c-0.854,0-1.656,0-2.547,0c0-0.511,0.001-1.015,0-1.518
			c-0.002-1.131,0.023-2.263-0.017-3.394c-0.032-0.908-0.495-1.428-1.16-1.421c-0.698,0.007-1.268,0.633-1.28,1.489
			c-0.021,1.599-0.006,3.197-0.006,4.839c-0.848,0-1.647,0-2.527,0C426.438,392.556,426.438,389.84,426.438,387.071z"/>
		<path fill-rule="evenodd" clip-rule="evenodd" fill="#FFFFFF" d="M523.163,394.442c-0.038,0.233-0.087,0.536-0.138,0.844
			c-0.738,0-1.434,0-2.117,0c0-3.99,0-7.945,0-11.933c0.879,0,1.699,0,2.604,0c0,1.499,0,2.974,0,4.319
			c0.752-0.273,1.449-0.658,2.189-0.768c1.461-0.215,2.717,0.514,3.322,1.861c0.721,1.607,0.689,3.246-0.123,4.813
			c-0.799,1.539-2.609,2.313-4.176,1.779C524.168,395.168,523.688,394.758,523.163,394.442z M526.903,391.249
			c-0.101-0.472-0.146-0.901-0.287-1.296c-0.278-0.777-1.001-1.197-1.756-1.08c-0.712,0.111-1.272,0.722-1.325,1.516
			c-0.037,0.551-0.037,1.108,0.006,1.658c0.055,0.694,0.583,1.248,1.234,1.375c0.709,0.138,1.418-0.156,1.721-0.807
			C526.699,392.181,526.777,391.689,526.903,391.249z"/>
		<path fill-rule="evenodd" clip-rule="evenodd" fill="#FFFFFF" d="M387.94,392.824c1.053,0.182,2.025,0.374,3.006,0.504
			c0.302,0.041,0.688,0,0.925-0.164c0.321-0.223,0.691-0.575,0.747-0.92c0.05-0.311-0.217-0.774-0.485-1.008
			c-0.34-0.297-0.824-0.426-1.245-0.631c-0.649-0.316-1.35-0.561-1.937-0.968c-1.838-1.272-1.835-3.838,0.033-5.067
			c1.881-1.237,3.877-0.972,5.926-0.278c-0.212,0.742-0.402,1.408-0.566,1.98c-0.884-0.138-1.693-0.293-2.509-0.375
			c-0.302-0.03-0.643,0.059-0.928,0.182c-0.808,0.345-0.897,1.229-0.16,1.707c0.424,0.275,0.916,0.447,1.378,0.664
			c0.559,0.262,1.153,0.467,1.673,0.793c2.174,1.363,2.083,4.418-0.193,5.607c-1.903,0.996-3.878,0.809-5.829,0.086
			c-0.128-0.048-0.275-0.324-0.249-0.464C387.638,393.889,387.811,393.317,387.94,392.824z"/>
		<path fill-rule="evenodd" clip-rule="evenodd" fill="#FFFFFF" d="M469.501,399.095c-0.189-0.76-0.364-1.458-0.505-2.026
			c0.696-0.504,1.343-0.932,1.94-1.42c0.362-0.298,0.379-0.696,0.187-1.158c-0.935-2.244-1.836-4.501-2.747-6.754
			c-0.078-0.193-0.139-0.395-0.241-0.686c0.934,0,1.798-0.019,2.659,0.02c0.126,0.006,0.297,0.264,0.35,0.434
			c0.511,1.623,1,3.253,1.548,5.053c0.486-1.92,0.936-3.695,1.388-5.482c0.931,0,1.821,0,2.793,0
			c-0.127,0.368-0.232,0.704-0.357,1.033c-0.936,2.471-1.829,4.96-2.828,7.405c-0.698,1.708-1.875,2.995-3.744,3.493
			C469.822,399.039,469.696,399.056,469.501,399.095z"/>
		<path fill-rule="evenodd" clip-rule="evenodd" fill="#FFFFFF" d="M455.837,395.268c0-1.325,0.002-2.644-0.002-3.962
			c-0.001-0.362,0.005-0.728-0.042-1.085c-0.112-0.834-0.569-1.271-1.267-1.257c-0.72,0.015-1.32,0.569-1.348,1.362
			c-0.043,1.258-0.02,2.52-0.023,3.779c-0.001,0.379,0,0.758,0,1.175c-0.891,0-1.711,0-2.605,0c0-2.733,0-5.452,0-8.202
			c0.702,0,1.416,0,2.176,0c0.043,0.323,0.084,0.629,0.114,0.85c0.63-0.333,1.219-0.797,1.884-0.967
			c1.947-0.496,3.475,0.682,3.701,2.75c0.03,0.276,0.035,0.555,0.036,0.832c0.003,1.557,0.001,3.114,0.001,4.725
			C457.586,395.268,456.75,395.268,455.837,395.268z"/>
		<path fill-rule="evenodd" clip-rule="evenodd" fill="#FFFFFF" d="M444.888,395.506c-2.57,0.002-4.334-1.74-4.33-4.275
			c0.005-2.633,1.785-4.373,4.463-4.367c2.556,0.008,4.287,1.715,4.291,4.232C449.316,393.73,447.537,395.504,444.888,395.506z
			 M443.201,391.178c0.128,0.533,0.194,1.001,0.354,1.433c0.233,0.627,0.693,1.017,1.398,1.017c0.68-0.001,1.11-0.386,1.358-0.98
			c0.422-1.012,0.402-2.034-0.036-3.033c-0.238-0.541-0.657-0.882-1.281-0.898c-0.65-0.019-1.128,0.302-1.363,0.869
			C443.417,390.104,443.331,390.676,443.201,391.178z"/>
		<path fill-rule="evenodd" clip-rule="evenodd" fill="#FFFFFF" d="M397.176,387.574c1.638-0.727,3.272-0.987,4.95-0.436
			c1.414,0.465,1.923,1.631,1.967,2.998c0.054,1.701,0.013,3.404,0.013,5.146c-0.684,0-1.421,0-2.203,0
			c-0.063-0.2-0.13-0.415-0.222-0.706c-0.733,0.636-1.546,0.964-2.5,0.928c-1.191-0.047-2.144-0.704-2.481-1.768
			c-0.343-1.086-0.02-2.384,0.96-2.948c0.788-0.454,1.726-0.66,2.613-0.925c0.356-0.105,0.753-0.074,1.159-0.108
			c0.013-0.712-0.406-1.058-0.975-1.042c-0.916,0.026-1.828,0.197-2.742,0.306c-0.021,0.067-0.041,0.136-0.061,0.204
			c-0.075-0.255-0.152-0.509-0.226-0.764C397.35,388.193,397.276,387.928,397.176,387.574z M401.414,391.349
			c-0.521,0.12-1.074,0.182-1.574,0.378c-0.604,0.236-0.828,0.889-0.584,1.418c0.223,0.484,0.838,0.668,1.434,0.429
			C401.473,393.259,401.769,392.422,401.414,391.349z"/>
		<path fill-rule="evenodd" clip-rule="evenodd" fill="#FFFFFF" d="M467.562,392.029c-1.81,0-3.55,0-5.293,0
			c0.073,0.769,0.509,1.302,1.363,1.395c0.833,0.092,1.688-0.012,2.534-0.045c0.206-0.008,0.409-0.078,0.662-0.129
			c0.114,0.574,0.221,1.111,0.326,1.641c-1.502,0.963-4.744,0.782-6.082-0.328c-1.49-1.236-1.84-3.816-0.771-5.693
			c0.972-1.707,3.12-2.492,4.995-1.789c1.668,0.627,2.212,2.014,2.333,3.64C467.659,391.135,467.589,391.557,467.562,392.029z
			 M465.169,390.185c-0.085-1.075-0.602-1.624-1.465-1.592c-0.842,0.03-1.445,0.694-1.445,1.592
			C463.229,390.185,464.198,390.185,465.169,390.185z"/>
		<path fill-rule="evenodd" clip-rule="evenodd" fill="#FFFFFF" d="M537.459,393.243c0.115,0.617,0.217,1.155,0.332,1.767
			c-1.889,0.566-3.735,0.854-5.547-0.093c-1.502-0.784-2.209-2.581-1.865-4.534c0.445-2.518,2.667-3.992,5.156-3.418
			c0.777,0.18,1.41,0.588,1.893,1.225c0.727,0.961,1.023,2.573,0.68,3.83c-1.725,0-3.465,0-5.209,0
			c0.042,0.742,0.456,1.283,1.282,1.386c0.831,0.104,1.688,0.015,2.533-0.011C536.941,393.389,537.168,393.305,537.459,393.243z
			 M532.813,390.19c1.015,0,1.986,0,2.958,0c-0.01-0.954-0.455-1.515-1.239-1.593C533.664,388.512,533.062,389.051,532.813,390.19z"
			/>
		<path fill-rule="evenodd" clip-rule="evenodd" fill="#FFFFFF" d="M560.219,392.027c-0.902,0-1.771,0-2.641,0
			c-0.872,0-1.743,0-2.617,0c0.057,0.74,0.471,1.279,1.291,1.376c0.854,0.101,1.73,0.006,2.596-0.021
			c0.207-0.006,0.41-0.08,0.672-0.135c0.115,0.584,0.227,1.137,0.352,1.762c-1.929,0.573-3.799,0.863-5.62-0.129
			c-1.802-0.98-2.417-3.597-1.401-5.718c0.926-1.929,3.217-2.88,5.184-2.041c0.61,0.261,1.205,0.759,1.592,1.303
			C560.371,389.477,560.454,390.713,560.219,392.027z M557.861,390.195c-0.088-1.109-0.627-1.656-1.503-1.602
			c-0.821,0.053-1.407,0.717-1.392,1.602C555.919,390.195,556.871,390.195,557.861,390.195z"/>
		<path fill-rule="evenodd" clip-rule="evenodd" fill="#FFFFFF" d="M422.044,392.022c-1.79,0-3.533,0-5.281,0
			c0.079,0.769,0.506,1.3,1.354,1.396c0.833,0.094,1.689-0.004,2.535-0.033c0.207-0.007,0.412-0.072,0.691-0.125
			c0.113,0.565,0.22,1.099,0.341,1.699c-0.221,0.084-0.426,0.212-0.643,0.234c-1.033,0.111-2.078,0.326-3.102,0.258
			c-2.879-0.192-4.462-2.873-3.489-5.764c0.744-2.213,3.008-3.357,5.238-2.648c0.739,0.234,1.333,0.668,1.746,1.324
			C422.137,389.484,422.259,390.701,422.044,392.022z M419.663,390.191c-0.028-1.021-0.521-1.586-1.367-1.6
			c-0.862-0.014-1.481,0.621-1.547,1.6C417.72,390.191,418.691,390.191,419.663,390.191z"/>
		<path fill-rule="evenodd" clip-rule="evenodd" fill="#FFFFFF" d="M515.943,392.023c-1.876,0-3.601,0-5.323,0
			c-0.022,0.701,0.395,1.271,1.229,1.377c0.853,0.107,1.732,0.01,2.599-0.013c0.206-0.006,0.411-0.075,0.689-0.129
			c0.115,0.565,0.223,1.098,0.346,1.7c-0.222,0.084-0.427,0.207-0.644,0.236c-0.862,0.117-1.729,0.296-2.594,0.288
			c-3.051-0.026-4.814-2.329-4.125-5.309c0.563-2.427,2.646-3.751,5.069-3.22c1.608,0.352,2.653,1.758,2.749,3.719
			C515.961,391.095,515.943,391.518,515.943,392.023z M513.484,390.186c-0.098-1.051-0.554-1.566-1.359-1.592
			c-0.857-0.029-1.458,0.563-1.586,1.592C511.508,390.186,512.474,390.186,513.484,390.186z"/>
		<path fill-rule="evenodd" clip-rule="evenodd" fill="#FFFFFF" d="M493.272,393.15c0,0.756,0,1.414,0,2.122
			c-2.375,0-4.732,0-7.127,0c0-3.761,0-7.509,0-11.305c0.838,0,1.678,0,2.573,0c0,0.605,0,1.2,0,1.794
			c0,2.264,0.013,4.527-0.01,6.791c-0.005,0.479,0.131,0.621,0.612,0.609C490.619,393.131,491.918,393.15,493.272,393.15z"/>
		<path fill-rule="evenodd" clip-rule="evenodd" fill="#FFFFFF" d="M498.502,387.048c0.894,0,1.703-0.026,2.507,0.022
			c0.163,0.01,0.393,0.278,0.449,0.469c0.47,1.594,0.905,3.197,1.354,4.796c0.021,0.073,0.067,0.141,0.135,0.278
			c0.517-1.893,1.011-3.707,1.51-5.536c0.908,0,1.776,0,2.729,0c-0.067,0.218-0.116,0.413-0.186,0.6
			c-0.896,2.394-1.803,4.784-2.683,7.185c-0.136,0.371-0.328,0.484-0.701,0.466c-0.679-0.034-1.524,0.211-1.995-0.11
			c-0.467-0.316-0.571-1.182-0.808-1.817c-0.707-1.896-1.4-3.797-2.097-5.697C498.647,387.509,498.589,387.311,498.502,387.048z"/>
		<path fill-rule="evenodd" clip-rule="evenodd" fill="#FFFFFF" d="M405.05,387.047c0.863,0,1.674-0.025,2.479,0.022
			c0.165,0.009,0.398,0.269,0.456,0.457c0.512,1.687,0.993,3.383,1.494,5.115c0.507-1.858,1.008-3.698,1.515-5.558
			c0.931,0,1.811,0,2.762,0c-0.374,1.001-0.728,1.956-1.085,2.909c-0.607,1.616-1.229,3.228-1.817,4.853
			c-0.131,0.36-0.298,0.507-0.688,0.482c-0.679-0.041-1.521,0.205-1.995-0.114c-0.468-0.315-0.582-1.175-0.817-1.808
			c-0.701-1.878-1.386-3.762-2.075-5.643C405.2,387.547,405.138,387.324,405.05,387.047z"/>
		<path fill-rule="evenodd" clip-rule="evenodd" fill="#FFFFFF" d="M544.493,393.365c0,0.408,0.001,0.768,0,1.127
			c-0.001,0.891,0,0.895-0.913,0.98c-0.275,0.025-0.555,0.031-0.831,0.027c-1.495-0.014-2.436-0.818-2.548-2.307
			c-0.088-1.166-0.045-2.344-0.059-3.516c-0.003-0.209-0.001-0.419-0.001-0.678c-0.366-0.021-0.679-0.041-1.046-0.064
			c0-0.598,0-1.201,0-1.852c0.318-0.023,0.647-0.047,0.998-0.072c0.019-0.129,0.041-0.23,0.046-0.332
			c0.052-1.217,0.051-1.217,1.257-1.533c0.406-0.107,0.813-0.21,1.295-0.334c0,0.77,0,1.463,0,2.218c0.629,0,1.195,0,1.807,0
			c0,0.647,0,1.233,0,1.913c-0.564,0-1.145,0-1.756,0c0,1.258-0.023,2.426,0.011,3.59c0.017,0.553,0.384,0.83,0.941,0.832
			C543.927,393.365,544.158,393.365,544.493,393.365z"/>
		<path fill-rule="evenodd" clip-rule="evenodd" fill="#FFFFFF" d="M551.065,388.975c-0.606,0-1.154,0-1.755,0
			c0,1.188-0.038,2.334,0.014,3.477c0.03,0.676,0.375,0.912,1.066,0.914c0.208,0.002,0.415,0.001,0.689,0.001
			c0,0.551,0.026,1.081-0.018,1.604c-0.013,0.146-0.229,0.379-0.365,0.392c-0.675,0.059-1.371,0.159-2.028,0.053
			c-1.159-0.187-1.817-1.021-1.905-2.317c-0.064-0.936-0.031-1.876-0.039-2.814c-0.004-0.403-0.001-0.807-0.001-1.279
			c-0.357-0.023-0.687-0.045-1.065-0.069c0-0.608,0-1.212,0-1.853c0.342-0.021,0.671-0.043,1.001-0.064
			c0.026-0.09,0.056-0.147,0.06-0.208c0.082-1.353,0.082-1.353,1.387-1.693c0.366-0.096,0.734-0.19,1.166-0.301
			c0,0.755,0,1.451,0,2.206c0.615,0,1.18,0,1.794,0C551.065,387.684,551.065,388.286,551.065,388.975z"/>
		<path fill-rule="evenodd" clip-rule="evenodd" fill="#FFFFFF" d="M561.84,387.072c0.719,0,1.415,0,2.168,0
			c0.039,0.412,0.077,0.806,0.132,1.375c0.671-1.138,1.509-1.74,2.794-1.537c0,0.791,0,1.566,0,2.346
			c-0.033,0.018-0.07,0.055-0.103,0.052c-1.708-0.158-2.364,0.423-2.384,2.144c-0.013,1.256-0.002,2.512-0.002,3.818
			c-0.878,0-1.713,0-2.605,0C561.84,392.54,561.84,389.839,561.84,387.072z"/>
		<path fill-rule="evenodd" clip-rule="evenodd" fill="#FFFFFF" d="M494.752,387.078c0.878,0,1.701,0,2.558,0c0,2.73,0,5.43,0,8.186
			c-0.838,0-1.674,0-2.558,0C494.752,392.555,494.752,389.843,494.752,387.078z"/>
		<path fill-rule="evenodd" clip-rule="evenodd" fill="#FFFFFF" d="M642.357,374.429c-0.143,0.463-0.26,0.937-0.441,1.384
			c-0.07,0.174-0.289,0.289-0.439,0.43c-0.125-0.141-0.307-0.262-0.367-0.428c-0.15-0.415-0.246-0.849-0.479-1.282
			c-0.023,0.271-0.049,0.543-0.068,0.814c-0.02,0.275-0.033,0.551-0.055,0.896c-0.197,0.017-0.395,0.032-0.672,0.055
			c0.068-1.067,0.133-2.077,0.195-3.074c0.947-0.141,0.947-0.141,1.189,0.696c0.092,0.323,0.182,0.647,0.326,1.165
			c0.167-0.505,0.322-0.837,0.383-1.186c0.117-0.67,0.46-0.911,1.202-0.66c0,0.964,0,1.974,0,3.016c-0.133,0-0.312,0-0.552,0
			c-0.029-0.625-0.057-1.233-0.084-1.84C642.45,374.419,642.404,374.424,642.357,374.429z"/>
		<path fill-rule="evenodd" clip-rule="evenodd" fill="#FFFFFF" d="M481.032,393.943c-0.007,0.945-0.629,1.568-1.556,1.559
			c-0.908-0.01-1.532-0.674-1.51-1.609c0.021-0.893,0.66-1.535,1.534-1.536C480.415,392.354,481.039,393,481.032,393.943z"/>
		<path fill-rule="evenodd" clip-rule="evenodd" fill="#FFFFFF" d="M569.955,392.357c0.904,0.013,1.516,0.678,1.496,1.625
			c-0.021,0.933-0.66,1.538-1.6,1.518c-0.877-0.019-1.479-0.667-1.469-1.584C568.392,392.988,569.039,392.346,569.955,392.357z"/>
		<path fill-rule="evenodd" clip-rule="evenodd" fill="#FFFFFF" d="M496.032,386.065c-0.786,0.015-1.375-0.517-1.4-1.262
			c-0.027-0.788,0.535-1.339,1.37-1.344c0.833-0.005,1.404,0.53,1.403,1.315C497.402,385.514,496.831,386.051,496.032,386.065z"/>
		<path fill-rule="evenodd" clip-rule="evenodd" fill="#FFFFFF" d="M637.389,375.748c0.528-0.097,1.159-0.078,1.216-0.249
			c0.177-0.532-0.508-0.405-0.725-0.668c-0.213-0.26-0.512-0.592-0.485-0.865c0.025-0.277,0.357-0.649,0.637-0.748
			c0.368-0.129,0.814-0.032,1.303-0.032c-0.063,0.264-0.104,0.435-0.13,0.549c-0.407,0.028-0.755,0.052-1.103,0.076
			c-0.019,0.085-0.037,0.169-0.055,0.254c0.24,0.133,0.473,0.281,0.721,0.396c0.445,0.206,0.766,0.496,0.681,1.029
			c-0.088,0.552-0.489,0.773-1,0.821c-0.21,0.02-0.427,0.002-0.638-0.016C637.351,376.255,637.196,376.048,637.389,375.748z"/>
	</g>
	<g>
		<path fill="#FFFFFF" d="M400.783,423.816c0,6.811-3.735,10.94-9.227,10.94c-5.575,0-8.836-4.653-8.836-10.571
			c0-6.225,3.596-10.879,9.143-10.879C397.633,413.307,400.783,418.084,400.783,423.816z M387.208,424.094
			c0,4.068,1.729,6.935,4.571,6.935c2.872,0,4.516-3.021,4.516-7.058c0-3.73-1.617-6.935-4.543-6.935
			C388.881,417.036,387.208,420.057,387.208,424.094z"/>
		<path fill="#FFFFFF" d="M403.542,424.156c0-1.881-0.056-3.482-0.112-4.809h3.68l0.195,2.065h0.083
			c0.557-0.956,1.951-2.403,4.208-2.403c2.788,0,4.878,2.033,4.878,6.471v8.938h-4.237v-8.352c0-1.941-0.613-3.268-2.146-3.268
			c-1.171,0-1.868,0.895-2.147,1.758c-0.112,0.309-0.167,0.74-0.167,1.172v8.689h-4.237V424.156z"/>
		<path fill="#FFFFFF" d="M419.875,412.537h4.237v8.599h0.056c0.808-1.294,2.23-2.126,4.125-2.126c3.262,0,5.659,2.989,5.631,7.611
			c0,5.424-3.123,8.136-6.243,8.136c-1.59,0-3.123-0.647-4.098-2.435h-0.056l-0.167,2.096h-3.596
			c0.055-0.985,0.111-2.805,0.111-4.499V412.537z M424.112,428.008c0,0.309,0.028,0.586,0.084,0.832
			c0.278,1.264,1.254,2.219,2.481,2.219c1.811,0,2.926-1.541,2.926-4.252c0-2.343-0.948-4.192-2.926-4.192
			c-1.143,0-2.203,0.956-2.481,2.313c-0.056,0.276-0.084,0.554-0.084,0.861V428.008z"/>
		<path fill="#FFFFFF" d="M450.09,426.713c0,5.516-3.541,8.044-7.192,8.044c-3.986,0-7.052-2.896-7.052-7.766
			s2.899-7.981,7.275-7.981C447.302,419.01,450.09,422.184,450.09,426.713z M440.222,426.867c0,2.59,0.975,4.53,2.787,4.53
			c1.645,0,2.704-1.817,2.704-4.53c0-2.25-0.78-4.529-2.704-4.529C440.975,422.338,440.222,424.648,440.222,426.867z"/>
		<path fill="#FFFFFF" d="M464.082,430.75c0,1.449,0.055,2.836,0.195,3.668h-3.819l-0.251-1.51h-0.083
			c-0.892,1.201-2.286,1.849-3.903,1.849c-2.759,0-4.404-2.218-4.404-4.622c0-3.914,3.178-5.795,8-5.763v-0.216
			c0-0.802-0.39-1.942-2.48-1.942c-1.394,0-2.871,0.524-3.763,1.141l-0.781-3.021c0.947-0.586,2.815-1.324,5.296-1.324
			c4.544,0,5.994,2.957,5.994,6.503V430.75z M459.956,427.299c-2.229-0.03-3.958,0.555-3.958,2.373c0,1.202,0.725,1.787,1.672,1.787
			c1.06,0,1.924-0.77,2.203-1.726c0.056-0.246,0.083-0.522,0.083-0.801V427.299z"/>
		<path fill="#FFFFFF" d="M467.426,424.311c0-2.22-0.056-3.67-0.112-4.963h3.651l0.14,2.773h0.111
			c0.696-2.188,2.369-3.111,3.68-3.111c0.39,0,0.585,0,0.892,0.061v4.438c-0.307-0.092-0.669-0.153-1.143-0.153
			c-1.561,0-2.62,0.925-2.899,2.374c-0.056,0.307-0.083,0.677-0.083,1.047v7.643h-4.237V424.311z"/>
		<path fill="#FFFFFF" d="M491.007,412.537v17.382c0,1.694,0.056,3.482,0.112,4.499h-3.763l-0.195-2.219h-0.056
			c-0.865,1.695-2.508,2.558-4.266,2.558c-3.233,0-5.826-3.051-5.826-7.735c-0.028-5.085,2.843-8.012,6.105-8.012
			c1.673,0,2.982,0.646,3.596,1.693h0.056v-8.166H491.007z M486.77,425.729c0-0.248-0.028-0.586-0.056-0.834
			c-0.251-1.264-1.171-2.311-2.481-2.311c-1.924,0-2.927,1.911-2.927,4.283c0,2.559,1.143,4.161,2.899,4.161
			c1.227,0,2.202-0.925,2.454-2.25c0.083-0.339,0.111-0.679,0.111-1.078V425.729z"/>
		<path fill="#FFFFFF" d="M498.783,415.156c0,1.295-0.892,2.343-2.286,2.343c-1.337,0-2.23-1.048-2.202-2.343
			c-0.028-1.356,0.864-2.373,2.229-2.373C497.891,412.783,498.755,413.8,498.783,415.156z M494.407,434.418v-15.07h4.236v15.07
			H494.407z"/>
		<path fill="#FFFFFF" d="M502.043,424.156c0-1.881-0.056-3.482-0.111-4.809h3.68l0.195,2.065h0.084
			c0.557-0.956,1.951-2.403,4.209-2.403c2.787,0,4.877,2.033,4.877,6.471v8.938h-4.236v-8.352c0-1.941-0.612-3.268-2.146-3.268
			c-1.171,0-1.868,0.895-2.147,1.758c-0.111,0.309-0.167,0.74-0.167,1.172v8.689h-4.237V424.156z"/>
		<path fill="#FFFFFF" d="M531.283,432.229c0,2.898-0.529,5.271-2.063,6.781c-1.506,1.418-3.541,1.85-5.547,1.85
			c-1.784,0-3.68-0.4-4.906-1.171l0.836-3.544c0.863,0.555,2.369,1.141,3.958,1.141c2.008,0,3.54-1.202,3.54-3.977v-0.986h-0.055
			c-0.809,1.264-2.119,1.973-3.68,1.973c-3.373,0-5.771-3.021-5.771-7.366c0-4.838,2.843-7.919,6.188-7.919
			c1.867,0,3.038,0.893,3.735,2.126h0.056l0.139-1.788h3.68c-0.055,0.955-0.111,2.219-0.111,4.469V432.229z M527.047,425.48
			c0-0.309-0.029-0.615-0.084-0.863c-0.307-1.231-1.115-2.064-2.285-2.064c-1.534,0-2.788,1.541-2.788,4.284
			c0,2.25,1.003,4.007,2.788,4.007c1.086,0,1.95-0.803,2.229-1.911c0.11-0.339,0.14-0.833,0.14-1.232V425.48z"/>
		<path fill="#FFFFFF" d="M540.453,413.924c1.31-0.247,3.148-0.432,5.742-0.432c2.619,0,4.487,0.555,5.741,1.664
			c1.198,1.049,2.007,2.773,2.007,4.809c0,2.034-0.613,3.758-1.729,4.93c-1.449,1.511-3.595,2.189-6.104,2.189
			c-0.559,0-1.06-0.031-1.45-0.093v7.427h-4.208V413.924z M544.661,423.354c0.363,0.092,0.809,0.123,1.423,0.123
			c2.257,0,3.65-1.264,3.65-3.39c0-1.911-1.198-3.052-3.316-3.052c-0.865,0-1.45,0.093-1.757,0.185V423.354z"/>
		<path fill="#FFFFFF" d="M556.257,424.311c0-2.22-0.056-3.67-0.112-4.963h3.652l0.139,2.773h0.112
			c0.696-2.188,2.369-3.111,3.68-3.111c0.39,0,0.585,0,0.892,0.061v4.438c-0.307-0.092-0.669-0.153-1.143-0.153
			c-1.563,0-2.621,0.925-2.898,2.374c-0.057,0.307-0.084,0.677-0.084,1.047v7.643h-4.237V424.311z"/>
		<path fill="#FFFFFF" d="M580.089,426.713c0,5.516-3.54,8.044-7.192,8.044c-3.984,0-7.052-2.896-7.052-7.766
			s2.898-7.981,7.275-7.981C577.302,419.01,580.089,422.184,580.089,426.713z M570.221,426.867c0,2.59,0.976,4.53,2.788,4.53
			c1.645,0,2.703-1.817,2.703-4.53c0-2.25-0.78-4.529-2.703-4.529C570.975,422.338,570.221,424.648,570.221,426.867z"/>
		<path fill="#FFFFFF" d="M595.697,432.229c0,2.898-0.529,5.271-2.063,6.781c-1.506,1.418-3.541,1.85-5.547,1.85
			c-1.785,0-3.68-0.4-4.906-1.171l0.836-3.544c0.864,0.555,2.369,1.141,3.959,1.141c2.006,0,3.539-1.202,3.539-3.977v-0.986h-0.056
			c-0.808,1.264-2.118,1.973-3.679,1.973c-3.373,0-5.77-3.021-5.77-7.366c0-4.838,2.842-7.919,6.188-7.919
			c1.867,0,3.038,0.893,3.734,2.126h0.057l0.139-1.788h3.68c-0.056,0.955-0.111,2.219-0.111,4.469V432.229z M591.46,425.48
			c0-0.309-0.027-0.615-0.083-0.863c-0.307-1.231-1.115-2.064-2.285-2.064c-1.534,0-2.789,1.541-2.789,4.284
			c0,2.25,1.004,4.007,2.789,4.007c1.086,0,1.949-0.803,2.229-1.911c0.112-0.339,0.14-0.833,0.14-1.232V425.48z"/>
		<path fill="#FFFFFF" d="M610.471,430.75c0,1.449,0.055,2.836,0.194,3.668h-3.819l-0.251-1.51h-0.083
			c-0.893,1.201-2.286,1.849-3.902,1.849c-2.76,0-4.404-2.218-4.404-4.622c0-3.914,3.178-5.795,8-5.763v-0.216
			c0-0.802-0.391-1.942-2.48-1.942c-1.395,0-2.871,0.524-3.764,1.141l-0.781-3.021c0.948-0.586,2.815-1.324,5.297-1.324
			c4.544,0,5.994,2.957,5.994,6.503V430.75z M606.344,427.299c-2.229-0.03-3.957,0.555-3.957,2.373c0,1.202,0.725,1.787,1.672,1.787
			c1.059,0,1.924-0.77,2.202-1.726c0.056-0.246,0.083-0.522,0.083-0.801V427.299z"/>
		<path fill="#FFFFFF" d="M613.814,424.156c0-1.881-0.057-3.482-0.112-4.809h3.568l0.194,2.034h0.084
			c0.586-0.955,1.784-2.372,4.126-2.372c1.757,0,3.149,0.985,3.735,2.557h0.055c0.503-0.8,1.115-1.386,1.756-1.818
			c0.754-0.492,1.59-0.738,2.594-0.738c2.619,0,4.599,2.033,4.599,6.533v8.875h-4.125v-8.197c0-2.188-0.642-3.453-2.008-3.453
			c-0.976,0-1.672,0.74-1.951,1.635c-0.11,0.339-0.167,0.832-0.167,1.201v8.814h-4.125v-8.444c0-1.911-0.613-3.206-1.951-3.206
			c-1.088,0-1.729,0.926-1.979,1.696c-0.14,0.369-0.167,0.801-0.167,1.171v8.783h-4.125V424.156z"/>
	
</g>
</svg>